<?xml version="1.0" standalone="no"?>
<!DOCTYPE svg PUBLIC "-//W3C//DTD SVG 20010904//EN"
 "http://www.w3.org/TR/2001/REC-SVG-20010904/DTD/svg10.dtd">
<svg version="1.0" xmlns="http://www.w3.org/2000/svg"
 width="254.000000pt" height="254.000000pt" viewBox="0 0 254.000000 254.000000"
 preserveAspectRatio="xMidYMid meet">
<metadata>
Created by potrace 1.14, written by Peter Selinger 2001-2017
</metadata>
<g transform="translate(0.000000,254.000000) scale(0.100000,-0.100000)"
fill="#000000" stroke="none">
<path d="M356 1742 c-3 -5 1 -9 9 -9 8 0 12 4 9 9 -3 4 -7 8 -9 8 -2 0 -6 -4
-9 -8z"/>
<path d="M755 1700 c3 -5 8 -10 11 -10 2 0 4 5 4 10 0 6 -5 10 -11 10 -5 0 -7
-4 -4 -10z"/>
<path d="M593 1615 c0 -8 4 -12 9 -9 5 3 6 10 3 15 -9 13 -12 11 -12 -6z"/>
<path d="M259 1573 c-13 -16 -12 -17 4 -4 9 7 17 15 17 17 0 8 -8 3 -21 -13z"/>
<path d="M313 1572 c0 -12 5 -22 9 -22 11 0 10 12 -2 30 -7 12 -9 10 -7 -8z"/>
<path d="M270 1538 c0 -6 6 -8 14 -5 8 3 17 2 20 -4 2 -5 3 -4 2 2 -3 15 -36
21 -36 7z"/>
<path d="M358 1523 c7 -3 16 -2 19 1 4 3 -2 6 -13 5 -11 0 -14 -3 -6 -6z"/>
<path d="M322 1500 c-15 -25 -15 -30 0 -30 6 0 8 3 5 7 -4 3 -2 12 5 20 6 7 9
15 7 18 -3 2 -10 -5 -17 -15z"/>
<path d="M2136 1504 c-19 -18 -20 -28 -6 -55 20 -37 80 -18 80 26 0 42 -44 59
-74 29z"/>
<path d="M235 1491 c-6 -11 13 -26 22 -17 4 3 1 6 -6 6 -7 0 -9 5 -6 10 3 6 4
10 1 10 -3 0 -7 -4 -11 -9z"/>
<path d="M210 1481 c0 -6 4 -13 10 -16 6 -3 7 1 4 9 -7 18 -14 21 -14 7z"/>
<path d="M46 1462 c-3 -5 1 -9 9 -9 8 0 12 4 9 9 -3 4 -7 8 -9 8 -2 0 -6 -4
-9 -8z"/>
<path d="M990 1466 c0 -2 7 -7 16 -10 8 -3 12 -2 9 4 -6 10 -25 14 -25 6z"/>
<path d="M196 1447 c3 -10 9 -15 12 -12 3 3 0 11 -7 18 -10 9 -11 8 -5 -6z"/>
<path d="M1920 1419 c0 -32 -3 -39 -20 -39 -15 0 -19 -6 -17 -30 1 -21 7 -30
20 -30 15 0 17 -11 17 -80 0 -74 2 -83 26 -107 22 -22 32 -25 75 -21 27 3 52
7 54 10 3 3 2 19 -1 35 -5 27 -10 31 -38 29 l-31 -1 -3 68 c-3 72 -3 72 53 68
16 -2 21 5 23 29 2 29 1 30 -38 30 -40 0 -40 0 -40 39 0 40 0 40 -40 39 -40 0
-40 -1 -40 -39z"/>
<path d="M268 1443 c7 -3 16 -2 19 1 4 3 -2 6 -13 5 -11 0 -14 -3 -6 -6z"/>
<path d="M215 1410 c-4 -6 1 -7 11 -3 11 4 15 3 11 -4 -8 -13 19 -11 30 2 4 4
3 5 -4 1 -6 -3 -14 -2 -18 4 -8 13 -22 13 -30 0z"/>
<path d="M459 1383 c-18 -8 -37 -19 -41 -26 -4 -7 -8 -7 -8 -2 0 16 -28 -42
-39 -80 -5 -19 -6 -37 -1 -40 4 -2 10 -18 13 -34 15 -75 144 -107 220 -56 36
25 48 45 26 45 -6 0 -17 7 -25 15 -14 13 -18 13 -37 0 -28 -19 -71 -19 -91 1
-25 24 -24 68 1 97 19 20 67 22 85 3 11 -12 17 -12 41 0 32 17 35 39 7 54 -11
6 -18 15 -15 20 3 4 -2 7 -12 6 -9 -2 -33 0 -54 4 -24 5 -49 2 -70 -7z"/>
<path d="M765 1390 c-46 -10 -74 -28 -95 -63 -25 -41 -25 -103 -1 -143 47 -78
187 -87 247 -16 28 32 41 101 24 132 -6 12 -9 28 -6 36 3 8 2 12 -4 9 -12 -8
-51 26 -43 38 3 6 1 7 -5 3 -6 -3 -28 -3 -49 2 -21 5 -51 5 -68 2z m77 -87
c18 -16 24 -68 10 -90 -15 -23 -55 -31 -83 -17 -28 14 -49 66 -30 72 6 2 9 7
6 12 -9 14 25 40 52 40 15 0 35 -7 45 -17z"/>
<path d="M950 1387 c0 -2 11 -30 24 -63 13 -32 36 -92 51 -132 l27 -73 45 3
45 3 49 129 c27 71 49 131 49 133 0 2 -19 3 -42 1 l-41 -3 -27 -82 c-14 -45
-29 -85 -31 -88 -3 -3 -18 35 -33 85 l-28 90 -44 0 c-24 0 -44 -1 -44 -3z"/>
<path d="M1299 1367 c-42 -28 -59 -60 -59 -112 0 -52 17 -84 59 -112 44 -30
122 -31 169 -3 37 23 39 31 13 54 -17 15 -23 16 -48 4 -36 -17 -76 -12 -99 13
-17 19 -15 19 84 19 l102 0 -4 42 c-5 46 -31 87 -67 105 -40 21 -112 16 -150
-10z m125 -53 c27 -27 18 -34 -44 -34 -57 0 -60 1 -50 19 17 33 68 41 94 15z"/>
<path d="M1565 1255 l0 -135 42 0 42 0 0 81 c0 86 7 103 48 114 47 11 63 -16
63 -112 l0 -83 40 0 40 0 0 106 c0 103 -1 106 -29 135 -22 21 -39 29 -66 29
-37 0 -74 -14 -87 -34 -5 -6 -8 -1 -8 12 0 19 -5 22 -43 22 l-43 0 1 -135z"/>
<path d="M2125 1258 l0 -133 42 -3 43 -3 -1 135 0 136 -42 0 -43 0 1 -132z"/>
<path d="M2324 1374 c-81 -40 -91 -174 -16 -229 16 -12 47 -21 82 -23 45 -3
61 0 89 20 45 30 47 40 11 60 -25 14 -31 14 -41 2 -16 -20 -73 -18 -92 4 -22
25 -21 75 1 95 23 21 62 22 87 3 17 -12 23 -12 48 6 23 16 26 23 16 35 -36 42
-127 56 -185 27z"/>
<path d="M190 1377 c0 -2 6 -10 14 -16 11 -9 16 -9 22 1 4 7 4 10 -1 6 -4 -4
-14 -3 -22 3 -7 6 -13 9 -13 6z"/>
<path d="M26 1182 c-3 -5 1 -9 9 -9 8 0 12 4 9 9 -3 4 -7 8 -9 8 -2 0 -6 -4
-9 -8z"/>
<path d="M30 1141 c0 -6 4 -13 10 -16 6 -3 7 1 4 9 -7 18 -14 21 -14 7z"/>
<path d="M1010 1139 c0 -5 5 -7 10 -4 6 3 10 8 10 11 0 2 -4 4 -10 4 -5 0 -10
-5 -10 -11z"/>
<path d="M70 1026 c0 -2 7 -7 16 -10 8 -3 12 -2 9 4 -6 10 -25 14 -25 6z"/>
<path d="M913 965 c0 -8 4 -12 9 -9 5 3 6 10 3 15 -9 13 -12 11 -12 -6z"/>
<path d="M150 956 c0 -2 8 -10 18 -17 15 -13 16 -12 3 4 -13 16 -21 21 -21 13z"/>
<path d="M256 922 c-2 -4 -1 -14 4 -22 7 -11 9 -9 7 8 -1 24 -3 26 -11 14z"/>
<path d="M355 919 c-3 -4 2 -6 10 -5 21 3 28 13 10 13 -9 0 -18 -4 -20 -8z"/>
<path d="M667 919 c7 -7 15 -10 18 -7 3 3 -2 9 -12 12 -14 6 -15 5 -6 -5z"/>
<path d="M635 909 c-4 -6 -5 -12 -2 -15 2 -3 7 2 10 11 7 17 1 20 -8 4z"/>
<path d="M750 916 c0 -2 8 -10 18 -17 15 -13 16 -12 3 4 -13 16 -21 21 -21 13z"/>
<path d="M550 906 c0 -2 7 -7 16 -10 8 -3 12 -2 9 4 -6 10 -25 14 -25 6z"/>
<path d="M220 880 c-9 -6 -10 -10 -3 -10 6 0 15 5 18 10 8 12 4 12 -15 0z"/>
<path d="M370 879 c0 -5 5 -7 10 -4 6 3 10 8 10 11 0 2 -4 4 -10 4 -5 0 -10
-5 -10 -11z"/>
<path d="M635 869 c-4 -6 -5 -12 -2 -15 2 -3 7 2 10 11 7 17 1 20 -8 4z"/>
<path d="M420 866 c0 -2 8 -10 18 -17 15 -13 16 -12 3 4 -13 16 -21 21 -21 13z"/>
<path d="M490 840 c0 -5 5 -10 11 -10 5 0 7 5 4 10 -3 6 -8 10 -11 10 -2 0 -4
-4 -4 -10z"/>
<path d="M775 841 c-3 -5 -2 -12 3 -15 5 -3 9 1 9 9 0 17 -3 19 -12 6z"/>
<path d="M695 801 c-3 -5 -2 -12 3 -15 5 -3 9 1 9 9 0 17 -3 19 -12 6z"/>
</g>
</svg>
